<?xml version="1.0" encoding="utf-8"?>
<!-- Generator: Adobe Illustrator 22.1.0, SVG Export Plug-In . SVG Version: 6.00 Build 0)  -->
<svg version="1.1" id="Layer_1" xmlns="http://www.w3.org/2000/svg" xmlns:xlink="http://www.w3.org/1999/xlink" x="0px" y="0px"
	 viewBox="0 0 841.9 1190.6" style="enable-background:new 0 0 841.9 1190.6;" xml:space="preserve">
<style type="text/css">
	.st0{fill:none;}
	.st1{fill:url(#SVGID_1_);}
	.st2{fill:url(#SVGID_2_);}
	.st3{fill:url(#SVGID_3_);}
	.st4{fill:url(#SVGID_4_);}
	.st5{fill:url(#SVGID_5_);}
	.st6{fill:url(#SVGID_6_);}
	.st7{fill:url(#SVGID_7_);}
</style>
<path class="st0" d="M357.4,974.7h15.8V708.3C348.2,829.8,360.7,921.1,357.4,974.7z"/>
<g>
	<linearGradient id="SVGID_1_" gradientUnits="userSpaceOnUse" x1="442.5504" y1="934.9053" x2="294.8589" y2="670.2223">
		<stop  offset="0" style="stop-color:#392771"/>
		<stop  offset="1" style="stop-color:#8260A6"/>
	</linearGradient>
	<path class="st1" d="M378.9,666c-5.2-15.9-13.6-29-24.1-39.4v309.8c7.7,5.8,15.8,11.7,24.1,17.6V666z"/>
	<linearGradient id="SVGID_2_" gradientUnits="userSpaceOnUse" x1="364.7593" y1="873.4627" x2="228.1371" y2="628.6173">
		<stop  offset="0" style="stop-color:#392771"/>
		<stop  offset="1" style="stop-color:#8260A6"/>
	</linearGradient>
	<path class="st2" d="M270,865.1c9.7,9.3,20.1,18.8,31.4,28.5V598.5c-10.3-2.2-20.9-3.1-31.4-2.7V865.1z"/>
	<linearGradient id="SVGID_3_" gradientUnits="userSpaceOnUse" x1="413.3512" y1="909.858" x2="263.6529" y2="641.5785">
		<stop  offset="0" style="stop-color:#392771"/>
		<stop  offset="1" style="stop-color:#8260A6"/>
	</linearGradient>
	<path class="st3" d="M315.4,905.4c9.9,8.2,20.3,16.5,31.4,24.9V619.5c-9.4-7.5-20.1-13.2-31.4-17.1V905.4z"/>
	<linearGradient id="SVGID_4_" gradientUnits="userSpaceOnUse" x1="279.3281" y1="807.4661" x2="183.3544" y2="635.4683">
		<stop  offset="0" style="stop-color:#392771"/>
		<stop  offset="1" style="stop-color:#8260A6"/>
	</linearGradient>
	<path class="st4" d="M231,603.7c-12.6,4.8-24.2,11.7-33.9,20.6v153c8.9,14.7,20.1,30.2,33.9,46.5V603.7z"/>
	<linearGradient id="SVGID_5_" gradientUnits="userSpaceOnUse" x1="746.0935" y1="873.6725" x2="325.4549" y2="119.8316">
		<stop  offset="0" style="stop-color:#392771"/>
		<stop  offset="1" style="stop-color:#8260A6"/>
	</linearGradient>
	<path class="st5" d="M712.6,171.3c-78.4-12.7-202-41-252.4-71.6c-3-13.2-11.9-38.5-11.9-38.5l-65.9-2.1c0,0,5.6,611.9,1.8,632.2
		c-0.1-0.9-0.2-1.8-0.3-2.6v268.9c18,12.7,37.3,25.7,58.1,39c0-108.3,27.7-772.6,27.7-772.6s137.4,25.9,213.5,21.6
		c23.3-1.7,75-0.7,129.1,42C804.9,249.7,801,196.4,712.6,171.3z"/>
	<linearGradient id="SVGID_6_" gradientUnits="userSpaceOnUse" x1="204.983" y1="737.8705" x2="160.6194" y2="658.3651">
		<stop  offset="0" style="stop-color:#392771"/>
		<stop  offset="1" style="stop-color:#8260A6"/>
	</linearGradient>
	<path class="st6" d="M181.1,643.9c-15,25.1-18.1,59.5,0,102.4V643.9z"/>
	<linearGradient id="SVGID_7_" gradientUnits="userSpaceOnUse" x1="318.998" y1="838.4338" x2="202.0772" y2="628.8961">
		<stop  offset="0" style="stop-color:#392771"/>
		<stop  offset="1" style="stop-color:#8260A6"/>
	</linearGradient>
	<path class="st7" d="M262,596.4c-8.9,0.9-17.6,2.8-26,5.5v227.6c7.9,9,16.5,18.2,26,27.7V596.4z"/>
</g>
</svg>
